{"title":"Real Steel 2011 TS XViD - REBORN","uid":6730745,"size":1486204690,"categoryP":"video","categoryS":"movies","magnet":"?xt=urn:btih:26c52aedc8dd98bf2f17b6b0b69639e5e4be6123&amp;dn=Real+Steel+2011+TS+XViD+-+REBORN&amp;tr=udp%3A%2F%2Ftracker.openbittorrent.com%3A80&amp;tr=udp%3A%2F%2Fopen.demonii.com%3A1337&amp;tr=udp%3A%2F%2Ftracker.coppersurfer.tk%3A6969&amp;tr=udp%3A%2F%2Fexodus.desync.com%3A6969","seeders":1,"leechers":0,"uploader":"TvTeam","files":6,"time":1318136936,"description":". \n  &lt;a href=&quot;\nhttp://www.torrenting.com/&quot; rel=&quot;nofollow&quot; target=&quot;_NEW&quot;&gt;\nhttp://www.torrenting.com/&lt;/a&gt;        :     Greatest Movie Tracker on The Net!!!\n &lt;a href=&quot;\nhttp://www.Torrenting.com&quot; rel=&quot;nofollow&quot; target=&quot;_NEW&quot;&gt;\nhttp://www.Torrenting.com&lt;/a&gt;          :     Once &amp; For all ;)\n\n\n               www . Torrenting . Com \n\n(((((((((((((= Enjoy No RAR releases =))))))))))))))))))))\n\n\n...................................NFO:....................................\n\n.Real Steel 2011 TS XViD - REBORN\n\nsource:\nAudio : SUCKIT\nVideo: RELIZLAB source files\n &lt;a href=&quot;\nhttp://www.imdb.com/title/tt0433035/&quot; rel=&quot;nofollow&quot; target=&quot;_NEW&quot;&gt;\nhttp://www.imdb.com/title/tt0433035/&lt;/a&gt;\n\nVideo\nID                               : 0\nFormat                           : MPEG-4 Visual\nFormat profile                   : Advanced Simple@L5\nFormat settings, BVOP            : 2\nFormat settings, QPel            : No\nFormat settings, GMC             : No warppoints\nFormat settings, Matrix          : Default (MPEG)\nMuxing mode                      : Packed bitstream\nCodec ID                         : XVID\nCodec ID/Hint                    : XviD\nDuration                         : 1h 54mn\nBit rate                         : 1 575 Kbps\nWidth                            : 720 pixels\nHeight                           : 304 pixels\nDisplay aspect ratio             : 2.35:1\nFrame rate                       : 25.000 fps\nColor space                      : YUV\nChroma subsampling               : 4:2:0\nBit depth                        : 8 bits\nScan type                        : Progressive\nCompression mode                 : Lossy\nBits/(Pixel*Frame)               : 0.288\nStream size                      : 1.26 GiB (92%)\nWriting library                  : XviD 64\n\nAudio\nID                               : 1\nFormat                           : MPEG Audio\nFormat version                   : Version 1\nFormat profile                   : Layer 3\nCodec ID                         : 55\nCodec ID/Hint                    : MP3\nDuration                         : 1h 54mn\nBit rate mode                    : Constant\nBit rate                         : 128 Kbps\nChannel(s)                       : 2 channels\nSampling rate                    : 44.1 KHz\nCompression mode                 : Lossy\nStream size                      : 105 MiB (7%)\nAlignment                        : Split accross interleaves\nInterleave, duration             : 40 ms (1.00 video frame)\nInterleave, preload duration     : 500 ms\n\n\n\n\nWORKDONE:\n\nfixed video,synced audio .....enjoy :P\n\n[IMG]http://i.imgur.com/Aq4UH.png[/IMG]\n[IMG]http://i.imgur.com/EzfDR.png[/IMG]\n[IMG]http://i.imgur.com/6NY4q.png[/IMG]\n[IMG]http://i.imgur.com/49iGO.png[/IMG]","torrent":{"xt":"urn:btih:26c52aedc8dd98bf2f17b6b0b69639e5e4be6123","amp;dn":"Real+Steel+2011+TS+XViD+-+REBORN","amp;tr":["udp%3A%2F%2Ftracker.openbittorrent.com%3A80","udp%3A%2F%2Fopen.demonii.com%3A1337","udp%3A%2F%2Ftracker.coppersurfer.tk%3A6969","udp%3A%2F%2Fexodus.desync.com%3A6969"],"infoHash":"26c52aedc8dd98bf2f17b6b0b69639e5e4be6123","infoHashBuffer":{"type":"Buffer","data":[38,197,42,237,200,221,152,191,47,23,182,176,182,150,57,229,228,190,97,35]},"announce":[],"urlList":[]}}